<svg xmlns="http://www.w3.org/2000/svg" viewBox="0 0 96 96" width="512" height="512">
  <defs>
    <radialGradient id="glow1" cx="50%" cy="58%" r="44%">
      <stop offset="0%" stop-color="oklch(0.95 0.16 85)" stop-opacity="0.9"></stop>
      <stop offset="55%" stop-color="oklch(0.85 0.14 75)" stop-opacity="0.25"></stop>
      <stop offset="100%" stop-color="oklch(0.85 0.14 75)" stop-opacity="0"></stop>
    </radialGradient>
    <linearGradient id="bulb1" x1="0" x2="0" y1="0" y2="1">
      <stop offset="0%" stop-color="oklch(0.86 0.16 80)"></stop>
      <stop offset="100%" stop-color="oklch(0.96 0.15 90)"></stop>
    </linearGradient>
  </defs>
  <circle cx="48" cy="38" r="32" fill="url(#glow1)"></circle>
  <line x1="48" y1="4" x2="48" y2="18" stroke="oklch(0.4 0.01 70)" stroke-width="1.2"></line>
  <rect x="42" y="18" width="12" height="2.5" fill="oklch(0.5 0.02 70)"></rect>
  <rect x="41" y="20.5" width="14" height="3" fill="oklch(0.4 0.02 70)"></rect>
  <path d="M40 23.5 V28 C38 31 35 34 35 39 C35 46 40 52 48 52 C56 52 61 46 61 39 C61 34 58 31 56 28 V23.5 Z" fill="url(#bulb1)" stroke="oklch(0.35 0.08 60)" stroke-width="1.2" stroke-linejoin="round"></path>
  <path d="M44 42 Q46 38 48 42 Q50 38 52 42" stroke="oklch(0.45 0.14 60)" stroke-width="0.8" fill="none" stroke-linecap="round"></path>
  <rect x="20" y="70" width="56" height="6" rx="1" fill="oklch(0.55 0.13 30)"></rect>
  <rect x="24" y="76" width="52" height="5" rx="1" fill="oklch(0.45 0.09 250)"></rect>
  <rect x="18" y="81" width="60" height="6" rx="1" fill="oklch(0.5 0.08 150)"></rect>
  <line x1="32" y1="71" x2="32" y2="75" stroke="oklch(0.4 0.1 30)" stroke-width="0.6"></line>
  <line x1="64" y1="71" x2="64" y2="75" stroke="oklch(0.4 0.1 30)" stroke-width="0.6"></line>
  <line x1="36" y1="77" x2="36" y2="80" stroke="oklch(0.3 0.07 250)" stroke-width="0.6"></line>
  <line x1="60" y1="77" x2="60" y2="80" stroke="oklch(0.3 0.07 250)" stroke-width="0.6"></line>
</svg>